<?xml version="1.0" encoding="UTF-8"?>
<svg xmlns="http://www.w3.org/2000/svg" viewBox="0 0 1200 630" width="1200" height="630">
  <defs>
    <linearGradient id="g75027" x1="68.73032967079561%" y1="3.640807271660627%" x2="31.269670329204395%" y2="96.35919272833937%">
      <stop offset="0%" stop-color="#DC2626"/>
      <stop offset="100%" stop-color="#B91C1C"/>
    </linearGradient>
  </defs>
  <rect width="1200" height="630" fill="url(#g75027)"/>
  <circle cx="440.43238651938736" cy="279.53464072197676" r="41.31404769443907" fill="none" stroke="rgba(255,255,255,0.12)" stroke-width="2"/><line x1="489.258079249179" y1="279.53464072197676" x2="515.548836872913" y2="279.53464072197676" stroke="rgba(255,255,255,0.12)" stroke-width="6" stroke-linecap="round"/><line x1="479.93320169991813" y1="308.2336628415121" x2="501.20287141251157" y2="323.6869824443388" stroke="rgba(255,255,255,0.12)" stroke-width="6" stroke-linecap="round"/><line x1="455.5203553350223" y1="325.97063395527" x2="463.6446462357488" y2="350.97463031165864" stroke="rgba(255,255,255,0.12)" stroke-width="6" stroke-linecap="round"/><line x1="425.3444177037524" y1="325.97063395527" x2="417.22012680302595" y2="350.97463031165864" stroke="rgba(255,255,255,0.12)" stroke-width="6" stroke-linecap="round"/><line x1="400.93157133885666" y1="308.2336628415121" x2="379.66190162626316" y2="323.6869824443388" stroke="rgba(255,255,255,0.12)" stroke-width="6" stroke-linecap="round"/><line x1="391.60669378959574" y1="279.53464072197676" x2="365.3159361658618" y2="279.53464072197676" stroke="rgba(255,255,255,0.12)" stroke-width="6" stroke-linecap="round"/><line x1="400.9315713388566" y1="250.83561860244143" x2="379.66190162626316" y2="235.3822989996147" stroke="rgba(255,255,255,0.12)" stroke-width="6" stroke-linecap="round"/><line x1="425.3444177037524" y1="233.09864748868353" x2="417.22012680302595" y2="208.09465113229487" stroke="rgba(255,255,255,0.12)" stroke-width="6" stroke-linecap="round"/><line x1="455.52035533502226" y1="233.09864748868353" x2="463.6446462357488" y2="208.09465113229487" stroke="rgba(255,255,255,0.12)" stroke-width="6" stroke-linecap="round"/><line x1="479.9332016999181" y1="250.8356186024414" x2="501.20287141251157" y2="235.38229899961468" stroke="rgba(255,255,255,0.12)" stroke-width="6" stroke-linecap="round"/><line x1="500" y1="433.37914331816137" x2="1100" y2="433.37914331816137" stroke="rgba(255,255,255,0.1)" stroke-width="2"/><line x1="500" y1="353.37914331816137" x2="1100" y2="353.37914331816137" stroke="rgba(255,255,255,0.1)" stroke-width="2"/><line x1="500" y1="433.37914331816137" x2="500" y2="353.37914331816137" stroke="rgba(255,255,255,0.08)" stroke-width="1.5"/><line x1="500" y1="433.37914331816137" x2="600" y2="353.37914331816137" stroke="rgba(255,255,255,0.06)" stroke-width="1.5"/><line x1="600" y1="433.37914331816137" x2="600" y2="353.37914331816137" stroke="rgba(255,255,255,0.08)" stroke-width="1.5"/><line x1="600" y1="433.37914331816137" x2="700" y2="353.37914331816137" stroke="rgba(255,255,255,0.06)" stroke-width="1.5"/><line x1="700" y1="433.37914331816137" x2="700" y2="353.37914331816137" stroke="rgba(255,255,255,0.08)" stroke-width="1.5"/><line x1="700" y1="433.37914331816137" x2="800" y2="353.37914331816137" stroke="rgba(255,255,255,0.06)" stroke-width="1.5"/><line x1="800" y1="433.37914331816137" x2="800" y2="353.37914331816137" stroke="rgba(255,255,255,0.08)" stroke-width="1.5"/><line x1="800" y1="433.37914331816137" x2="900" y2="353.37914331816137" stroke="rgba(255,255,255,0.06)" stroke-width="1.5"/><line x1="900" y1="433.37914331816137" x2="900" y2="353.37914331816137" stroke="rgba(255,255,255,0.08)" stroke-width="1.5"/><line x1="900" y1="433.37914331816137" x2="1000" y2="353.37914331816137" stroke="rgba(255,255,255,0.06)" stroke-width="1.5"/><line x1="1000" y1="433.37914331816137" x2="1000" y2="353.37914331816137" stroke="rgba(255,255,255,0.08)" stroke-width="1.5"/><line x1="1000" y1="433.37914331816137" x2="1100" y2="353.37914331816137" stroke="rgba(255,255,255,0.06)" stroke-width="1.5"/><line x1="1100" y1="433.37914331816137" x2="1100" y2="353.37914331816137" stroke="rgba(255,255,255,0.08)" stroke-width="1.5"/><line x1="100" y1="520" x2="100" y2="500" stroke="rgba(255,255,255,0.1)" stroke-width="1.5"/><line x1="130" y1="520" x2="130" y2="510" stroke="rgba(255,255,255,0.1)" stroke-width="1.5"/><line x1="160" y1="520" x2="160" y2="510" stroke="rgba(255,255,255,0.1)" stroke-width="1.5"/><line x1="190" y1="520" x2="190" y2="510" stroke="rgba(255,255,255,0.1)" stroke-width="1.5"/><line x1="220" y1="520" x2="220" y2="510" stroke="rgba(255,255,255,0.1)" stroke-width="1.5"/><line x1="250" y1="520" x2="250" y2="500" stroke="rgba(255,255,255,0.1)" stroke-width="1.5"/><line x1="280" y1="520" x2="280" y2="510" stroke="rgba(255,255,255,0.1)" stroke-width="1.5"/><line x1="310" y1="520" x2="310" y2="510" stroke="rgba(255,255,255,0.1)" stroke-width="1.5"/><line x1="340" y1="520" x2="340" y2="510" stroke="rgba(255,255,255,0.1)" stroke-width="1.5"/><line x1="370" y1="520" x2="370" y2="510" stroke="rgba(255,255,255,0.1)" stroke-width="1.5"/><line x1="400" y1="520" x2="400" y2="500" stroke="rgba(255,255,255,0.1)" stroke-width="1.5"/><line x1="430" y1="520" x2="430" y2="510" stroke="rgba(255,255,255,0.1)" stroke-width="1.5"/><line x1="460" y1="520" x2="460" y2="510" stroke="rgba(255,255,255,0.1)" stroke-width="1.5"/><line x1="490" y1="520" x2="490" y2="510" stroke="rgba(255,255,255,0.1)" stroke-width="1.5"/><line x1="520" y1="520" x2="520" y2="510" stroke="rgba(255,255,255,0.1)" stroke-width="1.5"/>
  <circle cx="225.59265168383718" cy="38.361322281416506" r="1.338397577404976" fill="rgba(255,255,255,0.0730451994179748)"/><circle cx="559.848097153008" cy="401.0765412636101" r="2.62136482167989" fill="rgba(255,255,255,0.04113769272342324)"/><circle cx="429.8675009049475" cy="201.4721788885072" r="2.8498029024340212" fill="rgba(255,255,255,0.07067825413076206)"/><circle cx="686.5972895175219" cy="135.00592441298068" r="1.5777992391958833" fill="rgba(255,255,255,0.053563872859813275)"/><circle cx="1099.626423139125" cy="566.5071004698984" r="2.1627932521514595" fill="rgba(255,255,255,0.06639894186053424)"/><circle cx="227.17514634132385" cy="519.8837340739556" r="1.3369405968114734" fill="rgba(255,255,255,0.06517608579713852)"/><circle cx="297.2947161644697" cy="396.5790408686735" r="1.9241712423972785" fill="rgba(255,255,255,0.04092199435224757)"/><circle cx="130.75878527015448" cy="239.496752677951" r="2.3373064608313143" fill="rgba(255,255,255,0.03938659224193543)"/><circle cx="1048.805177025497" cy="394.55963141284883" r="2.33636153396219" fill="rgba(255,255,255,0.04227860408835113)"/><circle cx="444.32616708800197" cy="318.16749543417245" r="1.9013902675360441" fill="rgba(255,255,255,0.06555552524048835)"/><circle cx="343.4156997129321" cy="37.18236533459276" r="1.079320347867906" fill="rgba(255,255,255,0.06653048258274794)"/><circle cx="1015.8844403922558" cy="612.7826305828057" r="1.2209243192337453" fill="rgba(255,255,255,0.06393943281844258)"/><circle cx="949.5899375528097" cy="65.98529047798365" r="2.8778710342012346" fill="rgba(255,255,255,0.034678781260736286)"/><circle cx="1106.9262586534023" cy="155.71438847808167" r="2.7567474874667823" fill="rgba(255,255,255,0.06937533990247174)"/><circle cx="651.4277849346399" cy="487.1752760047093" r="1.1476760464720428" fill="rgba(255,255,255,0.0412160591641441)"/><circle cx="421.4718117378652" cy="2.943261251784861" r="1.5752048292197287" fill="rgba(255,255,255,0.049717722677160056)"/><circle cx="139.36881814152002" cy="422.5640447647311" r="1.723158732522279" fill="rgba(255,255,255,0.06916725410381333)"/><circle cx="531.9839850068092" cy="374.5690540736541" r="1.7959411293268204" fill="rgba(255,255,255,0.06400800911476837)"/><circle cx="372.9349611327052" cy="115.66248990828171" r="1.0687646176666021" fill="rgba(255,255,255,0.05570768172154203)"/><circle cx="50.25526564568281" cy="174.34500783216208" r="1.7708331323228776" fill="rgba(255,255,255,0.052044068342074756)"/>
  <text x="600" y="335" font-family="system-ui, -apple-system, 'Segoe UI', sans-serif" font-size="68" font-weight="700" fill="rgba(0,0,0,0.15)" text-anchor="middle" letter-spacing="1">FE Exam</text>
  <text x="600" y="332" font-family="system-ui, -apple-system, 'Segoe UI', sans-serif" font-size="68" font-weight="700" fill="white" text-anchor="middle" letter-spacing="1">FE Exam</text>
  <g transform="translate(1140, 575)">
    <rect x="0" y="0" width="40" height="40" rx="8" fill="rgba(255,255,255,0.15)"/>
    <text x="20" y="29" font-family="sans-serif" font-weight="bold" font-size="24" fill="rgba(255,255,255,0.6)" text-anchor="middle">K</text>
  </g>
</svg>